<svg xmlns="http://www.w3.org/2000/svg" width="600" height="600" viewBox="0 0 600 600"><path d="M332.281 104.051c-.37.023-.963 1.45-1.33 3.209-.373 1.787-1.762 5.224-3.086 7.637l-2.408 4.386 3.72 5.606c10.142 15.279 28.51 59.523 25.73 61.972-.516.454-5.888 2.526-11.938 4.606s-17.891 6.834-26.315 10.562l-15.314 6.78-1.34.515v12.684l1.56.873 12.206 6.432c12.28 6.47 35.872 20.132 43.617 25.257 2.292 1.518 3.812 3.099 3.377 3.516s-9.116 5.452-19.291 11.188c-10.175 5.735-23.153 13.197-28.842 16.582-4.001 2.601-8.271 4.648-12.627 6.498v94.716c5.511 1.682 11.312 3.922 16.732 6.29 7.02 3.115 18.27 7.529 25 9.806 6.731 2.278 12.626 4.485 13.1 4.904 2.161 1.914-13.535 42.123-23.465 60.114l-5.89 10.674 2.418 4.826c1.33 2.654 2.728 6.063 3.105 7.576s1.018 2.75 1.424 2.75c1.443 0 16.07-27.713 21.639-41 5.694-13.585 13.406-35.769 13.406-38.56 0-2.617 2.461-2.628 14.633-.065 19.019 4.004 67.367 8.38 67.367 6.097 0-.43-1.058-2.176-2.352-3.878s-3.067-4.487-3.943-6.188l-1.594-3.094-12.805-.648c-16.004-.811-25.118-1.938-42.556-5.266-15.427-2.944-14.605-2.147-12.291-11.957 1.823-7.73 5.078-27.19 6.595-39.441l1.178-9.5 12.772-9.819c7.024-5.4 16.217-12.995 20.431-16.878l7.662-7.061 2.598 2.379c10.037 9.196 30.364 36.17 38.904 51.627 2.489 4.504 3.327 5.253 5.9 5.275 1.65.014 4.974.48 7.384 1.035 2.41.556 4.587.806 4.838.555.785-.785-8.41-17.744-15.54-28.662-7.358-11.268-22.149-29.74-29.513-36.857l-4.559-4.405 3.196-3.666a3912 3912 0 0 1 11.072-12.595c9.547-10.824 22.638-30.362 29.431-43.928 2.755-5.5 4.937-10.06 4.85-10.133s-3.6.096-7.805.375c-7.063.469-7.735.708-8.828 3.133-5.697 12.646-21.164 34.212-38.347 53.472l-3.432 3.846-6.373-5.988c-5.37-5.047-18.001-15.506-31.649-26.205-3.12-2.447-3.222-2.789-4.783-16-.877-7.425-2.921-20.217-4.543-28.426-2.046-10.362-2.614-15.131-1.86-15.598 1.789-1.105 30.704-5.979 41.462-6.988 5.5-.516 13.712-.949 18.25-.963 4.537-.014 8.25-.389 8.25-.834s1.575-3.424 3.5-6.62c1.925-3.198 3.5-6.054 3.5-6.349 0-.797-31.205.566-41 1.792-4.675.584-15.058 2.396-23.072 4.025-8.015 1.628-14.842 2.96-15.172 2.96s-1.981-4.45-3.67-9.886c-4.333-13.946-11.238-30.744-17.961-43.7-6.303-12.145-14.238-25.308-15.295-25.372zm26.059 96.613c.628-.002 1.011.154 1.2.457 1.219 1.974 7.864 37.364 7.911 42.139.01.962-.32 1.72-.732 1.685-.413-.035-4.575-2.582-9.25-5.662-8.892-5.857-24.796-15.117-33.75-19.65-2.888-1.462-5.25-2.993-5.25-3.402 0-.769 23.931-10.653 34.435-14.223 2.656-.903 4.388-1.34 5.436-1.344m9.836 64.455.64 9.696c.825 12.446.826 42.713.002 51.433l-.636 6.74-13.606 8.842c-13.575 8.822-27.454 17.178-40.494 24.377-3.789 2.092-7.276 3.803-7.75 3.803s-.863-15.687-.863-34.86v-34.859l10.25-5.797c5.637-3.189 17.965-10.194 27.394-15.566 9.43-5.373 18.924-10.678 21.102-11.79zm14.76 6.89c.67 0 19.115 15.086 25.033 20.474l5 4.55-7.5 7.024c-4.125 3.862-10.988 9.735-15.25 13.05l-7.75 6.03v-25.565c0-14.06.21-25.562.467-25.562m-15.819 78.358q.035 0 .051.008l.006.004c.567.568-2.345 18.006-5.254 31.461-1.383 6.4-2.84 11.912-3.234 12.25-1.172 1.004-40.217-13.52-40.217-14.96 0-.398 2.112-1.747 4.691-3 7.207-3.502 24.814-13.794 34.717-20.294 4.67-3.064 8.689-5.438 9.24-5.468zM267.719 104.05c.37.023.963 1.45 1.33 3.209.373 1.787 1.762 5.224 3.086 7.637l2.408 4.386-3.72 5.606c-10.142 15.279-28.51 59.523-25.73 61.972.516.454 5.888 2.526 11.938 4.606s17.891 6.834 26.315 10.562l15.314 6.78 1.34.515v12.684l-1.56.873-12.206 6.432c-12.28 6.47-35.872 20.132-43.617 25.257-2.292 1.518-3.811 3.099-3.377 3.516s9.116 5.452 19.291 11.188c10.175 5.735 23.153 13.197 28.842 16.582 5.03 2.992 8.754 4.824 12.627 6.498v94.717c-5.511 1.682-11.312 3.922-16.732 6.29-7.02 3.115-18.27 7.529-25 9.806-6.731 2.278-12.626 4.485-13.1 4.904-2.161 1.914 13.535 42.123 23.465 60.114l5.89 10.674-2.417 4.826c-1.331 2.654-2.729 6.063-3.106 7.576s-1.018 2.75-1.424 2.75c-1.443 0-16.07-27.713-21.638-41-5.695-13.585-13.407-35.769-13.407-38.56 0-2.617-2.461-2.628-14.632-.065-19.02 4.004-67.368 8.38-67.368 6.097 0-.43 1.058-2.176 2.352-3.878s3.067-4.487 3.943-6.188l1.594-3.094 12.805-.648c16.004-.811 25.119-1.938 42.556-5.266 15.427-2.944 14.605-2.147 12.291-11.957-1.823-7.73-5.077-27.19-6.595-39.441l-1.178-9.5-12.772-9.819c-7.024-5.4-16.217-12.995-20.431-16.878l-7.662-7.061-2.598 2.379c-10.037 9.196-30.364 36.17-38.904 51.627-2.489 4.504-3.327 5.253-5.9 5.275-1.65.014-4.973.48-7.384 1.035-2.41.556-4.587.806-4.837.555-.785-.785 8.408-17.744 15.539-28.662 7.358-11.268 22.149-29.74 29.513-36.857l4.559-4.405-3.195-3.666c-1.758-2.016-6.74-7.685-11.073-12.595-9.547-10.824-22.638-30.362-29.431-43.928-2.754-5.5-4.936-10.06-4.85-10.133s3.6.096 7.805.375c7.064.469 7.735.708 8.828 3.133 5.697 12.646 21.164 34.212 38.348 53.472l3.431 3.846 6.373-5.988c5.37-5.047 18.001-15.506 31.649-26.205 3.12-2.447 3.222-2.789 4.783-16 .877-7.425 2.921-20.217 4.543-28.426 2.047-10.362 2.614-15.131 1.86-15.598-1.789-1.105-30.704-5.979-41.462-6.988-5.5-.516-13.712-.949-18.25-.963-4.537-.014-8.25-.389-8.25-.834s-1.575-3.424-3.5-6.62c-1.925-3.198-3.5-6.054-3.5-6.349 0-.797 31.205.566 41 1.792 4.675.584 15.058 2.396 23.073 4.025 8.014 1.628 14.842 2.96 15.171 2.96.33 0 1.981-4.45 3.67-9.886 4.333-13.946 11.238-30.744 17.961-43.7 6.304-12.145 14.238-25.308 15.295-25.372zm-26.059 96.613c-.628-.002-1.011.154-1.199.457-1.22 1.974-7.865 37.364-7.912 42.139-.01.962.32 1.72.732 1.685.413-.035 4.575-2.582 9.25-5.662 8.893-5.857 24.796-15.117 33.75-19.65 2.888-1.462 5.25-2.993 5.25-3.402 0-.769-23.931-10.653-34.435-14.223-2.656-.903-4.388-1.34-5.436-1.344m-9.836 64.455-.64 9.696c-.825 12.446-.826 42.713-.002 51.433l.636 6.74 13.606 8.842c13.575 8.822 27.454 17.178 40.494 24.377 3.789 2.092 7.276 3.803 7.75 3.803s.863-15.687.863-34.86V300.29l-10.25-5.797a12850 12850 0 0 1-27.394-15.566c-9.43-5.373-18.924-10.678-21.102-11.79zm-14.76 6.89c-.67 0-19.115 15.086-25.033 20.474l-5 4.55 7.5 7.024c4.125 3.862 10.988 9.735 15.25 13.05l7.75 6.03v-25.565c0-14.06-.21-25.562-.466-25.562m15.819 78.358a.1.1 0 0 0-.05.008l-.007.004c-.567.568 2.345 18.006 5.254 31.461 1.384 6.4 2.84 11.912 3.234 12.25 1.172 1.004 40.217-13.52 40.217-14.96 0-.398-2.111-1.747-4.691-3-7.207-3.502-24.814-13.794-34.717-20.294-4.67-3.064-8.688-5.438-9.24-5.468z" style="display:inline;fill:#000"/><path d="M324.466 502.117c0 13.512-10.954 24.466-24.466 24.466s-24.465-10.954-24.465-24.466 10.953-24.465 24.465-24.465 24.466 10.953 24.466 24.465m0-404.234c0-13.512-10.954-24.465-24.466-24.465s-24.465 10.953-24.465 24.465 10.953 24.466 24.465 24.466 24.466-10.954 24.466-24.466M495.901 196.349c0 13.512-10.953 24.465-24.465 24.465s-24.466-10.953-24.466-24.465 10.954-24.466 24.466-24.466c13.511 0 24.465 10.954 24.465 24.466m-391.802 0c0 13.512 10.954 24.465 24.466 24.465s24.465-10.953 24.465-24.465-10.953-24.466-24.465-24.466-24.466 10.954-24.466 24.466m392.462 201.646c0 13.512-10.954 24.466-24.466 24.466s-24.465-10.954-24.465-24.466 10.953-24.465 24.465-24.465 24.466 10.953 24.466 24.465m-393.122 0c0 13.512 10.954 24.466 24.466 24.466s24.465-10.954 24.465-24.466-10.953-24.465-24.465-24.465-24.466 10.953-24.466 24.465" style="display:inline;fill:#000;stroke-width:.918033"/></svg>